Coordinates
version=1
nRows=11
nColumns=63
inDegrees=yes

Units are S.I. units (second, meters, Newtons, ...)
If the header above contains a line with 'inDegrees', this indicates whether rotational values are in degrees (yes) or radians (no).

endheader
time	pelvis_tilt	pelvis_list	pelvis_rotation	pelvis_tx	pelvis_ty	pelvis_tz	hip_flexion_r	hip_adduction_r	hip_rotation_r	knee_angle_r	knee_angle_r_beta	ankle_angle_r	subtalar_angle_r	mtp_angle_r	hip_flexion_l	hip_adduction_l	hip_rotation_l	knee_angle_l	knee_angle_l_beta	ankle_angle_l	subtalar_angle_l	mtp_angle_l	L5_S1_Flex_Ext	L5_S1_Lat_Bending	L5_S1_axial_rotation	L4_L5_Flex_Ext	L4_L5_Lat_Bending	L4_L5_axial_rotation	L3_L4_Flex_Ext	L3_L4_Lat_Bending	L3_L4_axial_rotation	L2_L3_Flex_Ext	L2_L3_Lat_Bending	L2_L3_axial_rotation	L1_L2_Flex_Ext	L1_L2_Lat_Bending	L1_L2_axial_rotation	L1_T12_Flex_Ext	L1_T12_Lat_Bending	L1_T12_axial_rotation	Abs_r3	Abs_r2	Abs_r1	Abs_t1	Abs_t2	neck_flexion	neck_bending	neck_rotation	arm_flex_r	arm_add_r	arm_rot_r	elbow_flex_r	pro_sup_r	wrist_flex_r	wrist_dev_r	arm_flex_l	arm_add_l	arm_rot_l	elbow_flex_l	pro_sup_l	wrist_flex_l	wrist_dev_l
      0.00000000	     -6.60377614	      5.44578646	    -96.05051144	      0.00928220	      0.95644188	     -1.41365833	     16.47790915	     14.84843497	      0.69188242	     39.74921090	      0.69375461	     17.43442564	    -19.26036078	      0.00000000	     51.28008754	     -2.45599302	      0.48683811	     45.73303792	      0.79819209	      3.73821643	    -10.64891169	      0.00000000	     -0.48041391	      1.44270907	      1.80087677	     -0.89217668	      1.91880306	      1.91343156	     -0.78927202	      3.50780283	      1.91343156	     -0.54906506	      3.50780283	      1.57576717	     -0.44611236	      2.94197233	      1.46321237	     -0.27450851	      2.23475635	      1.35065757	     -3.43154855	     16.32021353	     10.01593631	      0.00000000	      0.00000000	      0.00000000	      0.00000000	      0.00000001	    -13.38154678	    -19.24247165	    -20.41638162	     58.93909253	     72.25466799	      0.00000000	      3.18111981	     -1.35383041	     -8.20593832	     12.69888020	     25.12155844	     70.19760636	      0.00000000	      3.18111981
      0.01666667	     -6.74383642	      5.89123675	    -96.79544685	      0.00757218	      0.95611679	     -1.40702966	     15.92030490	     14.74661442	     -0.58257378	     38.82040850	      0.67754395	     16.44379569	    -18.65082415	      0.00000000	     50.34766017	     -2.55970782	      2.17967486	     41.90863351	      0.73144364	      2.94991288	     -7.67875396	      0.00000000	     -0.44562814	      1.46673014	      1.59784288	     -0.82757603	      1.95075109	      1.69770806	     -0.73212248	      3.56620767	      1.69770806	     -0.50930841	      3.56620767	      1.39811252	     -0.41381029	      2.99095611	      1.29824734	     -0.25463192	      2.27196499	      1.19838216	     -3.18307727	     16.59194474	      8.88672277	      0.00000000	      0.00000000	      0.00000000	      0.00000000	      0.00000001	    -11.34561166	    -19.46448569	    -22.23072208	     58.96512450	     72.05463489	      0.00000000	      3.45180347	     -2.68432631	     -8.31895592	      7.12650346	     25.59276860	     68.71183316	      0.00000000	      3.45180347
      0.03333333	     -7.21168748	      5.87593604	    -97.22420468	      0.00464384	      0.95705321	     -1.39885051	     15.67894493	     15.17828474	     -1.15635271	     38.73523562	      0.67605740	     18.93522102	    -17.60800792	      0.00000000	     48.16353439	     -3.07995270	      2.70382923	     38.91136122	      0.67913137	      2.08597276	     -6.57195466	      0.00000000	     -0.40227826	      1.47606827	      1.50375455	     -0.74707096	      1.96317080	      1.59773921	     -0.66090296	      3.58891239	      1.59773921	     -0.45976383	      3.58891239	      1.31578523	     -0.37355560	      3.00999842	      1.22180057	     -0.22986180	      2.28642975	      1.12781591	     -2.87343341	     16.69757948	      8.36343170	      0.00000000	      0.00000000	      0.00000000	      0.00000000	      0.00000001	    -10.42887598	    -19.35768110	    -22.29271487	     59.61742817	     71.99195896	      0.00000000	      3.49233931	     -2.74661921	     -8.50838075	      6.50631068	     24.70091996	     68.72017619	      0.00000000	      3.49233931
      0.05000000	     -7.68502398	      6.08861534	    -96.87604403	      0.00301366	      0.95787494	     -1.39014500	     14.84820684	     15.35745325	     -2.22581199	     37.49744607	      0.65445389	     19.34247333	    -16.34865338	      0.00000000	     46.70784374	     -3.23122101	      3.28596503	     36.77940215	      0.64192166	      1.86968164	     -7.32935565	      0.00000000	     -0.35448455	      1.44396423	      1.37443867	     -0.65831326	      1.92047242	      1.46034109	     -0.58238267	      3.51085462	      1.46034109	     -0.40514039	      3.51085462	      1.20263384	     -0.32917435	      2.94453185	      1.11673142	     -0.20255247	      2.23670059	      1.03082900	     -2.53204768	     16.33441211	      7.64421554	      0.00000000	      0.00000000	      0.00000000	      0.00000000	      0.00000001	     -9.84726235	    -19.13712177	    -22.62003019	     59.68915150	     71.80271497	      0.00000000	      3.58918435	     -2.43991700	     -8.64023336	      4.55176912	     24.07477273	     68.87066729	      0.00000000	      3.58918435
      0.06666667	     -8.31043717	      6.17728631	    -96.62726323	      0.00112547	      0.95947294	     -1.38112703	     14.63574444	     15.55553012	     -3.32407660	     37.77323037	      0.65926724	     19.43875766	    -16.23888309	      0.00000000	     45.67819010	     -3.45176681	      3.99909225	     36.01786136	      0.62863027	      1.74555284	     -8.71519870	      0.00000000	     -0.33320130	      1.42143424	      1.29361747	     -0.61878813	      1.89050754	      1.37446856	     -0.54741641	      3.45607522	      1.37446856	     -0.38081576	      3.45607522	      1.13191528	     -0.30941072	      2.89858871	      1.05106419	     -0.19039122	      2.20180164	      0.97021310	     -2.38002353	     16.07954845	      7.19471226	      0.00000000	      0.00000000	      0.00000000	      0.00000000	      0.00000001	     -9.42349175	    -19.29150868	    -22.44386667	     60.29898743	     71.80964941	      0.00000000	      3.67292922	     -2.21093080	     -8.76543991	      3.10885557	     23.87272840	     69.25406627	      0.00000000	      3.67292922
      0.08333333	     -8.49182970	      6.09644943	    -96.14154808	     -0.00116422	      0.96118814	     -1.36970253	     13.73659993	     15.33055100	     -4.53029806	     37.58971195	      0.65606424	     18.93082375	    -16.08197207	      0.00000000	     44.83816850	     -3.26985002	      4.48000561	     36.10859132	      0.63021381	      1.93553958	     -9.51371809	      0.00000000	     -0.31015327	      1.31991438	      1.20606322	     -0.57598564	      1.75548612	      1.28144217	     -0.50955081	      3.20923982	      1.28144217	     -0.35447417	      3.20923982	      1.05530531	     -0.28800833	      2.69156940	      0.97992636	     -0.17722158	      2.04454737	      0.90454741	     -2.21539380	     14.93113541	      6.70776179	      0.00000000	      0.00000000	      0.00000000	      0.00000000	      0.00000001	     -9.42216592	    -19.19970976	    -22.38038101	     60.86482467	     71.84917175	      0.00000000	      3.69189956	     -2.05001386	     -9.39193131	      2.72001759	     23.91628528	     69.36350929	      0.00000000	      3.69189956
      0.10000000	     -8.76083360	      5.61812627	    -95.55767343	     -0.00326150	      0.96359607	     -1.35555844	     12.31016398	     15.22554069	     -5.78168335	     37.71883180	      0.65831780	     18.31477769	    -16.07255140	      0.00000000	     44.06709892	     -3.04662652	      5.28813600	     37.18628919	      0.64902318	      1.68849604	    -11.03596486	      0.00000000	     -0.31733165	      1.21919563	      1.05645709	     -0.58931662	      1.62153019	      1.12248566	     -0.52134418	      2.96435226	      1.12248566	     -0.36267835	      2.96435226	      0.92439996	     -0.29467417	      2.48618373	      0.85837139	     -0.18132331	      1.88853403	      0.79234282	     -2.26666828	     13.79178483	      5.87569742	      0.00000000	      0.00000000	      0.00000000	      0.00000000	      0.00000001	     -9.39660997	    -19.15640112	    -22.24466299	     62.04545426	     71.97207590	      0.00000000	      3.72702392	     -2.21296800	    -10.07583511	      2.07708942	     23.97677759	     69.59402478	      0.00000000	      3.72702392
      0.11666667	     -8.81610006	      5.14172098	    -94.92373523	     -0.00539453	      0.96669625	     -1.33784536	     10.61014860	     14.99022770	     -6.82436945	     37.82504324	      0.66017154	     17.37476857	    -16.05448395	      0.00000000	     43.15010964	     -2.62072322	      6.02769524	     38.39420417	      0.67010528	      1.86363809	    -12.19615006	      0.00000000	     -0.31067390	      1.07444905	      0.79881786	     -0.57695250	      1.42901724	      0.84874398	     -0.51040615	      2.61241542	      0.84874398	     -0.35506920	      2.61241542	      0.69896563	     -0.28849178	      2.19101651	      0.64903951	     -0.17751907	      1.66432158	      0.59911340	     -2.21911261	     12.15438256	      4.44278530	      0.00000000	      0.00000000	      0.00000000	      0.00000000	      0.00000001	     -9.08542416	    -19.12890627	    -21.43768222	     63.14535243	     72.96050857	      0.00000000	      4.04391934	     -3.43390326	    -10.55251988	     -2.05416899	     25.20936248	     71.90945827	      0.00000000	      4.04391934
      0.13333333	     -8.70023082	      4.30473889	    -94.26181066	     -0.00740851	      0.97117761	     -1.31693306	      8.16966965	     14.54399555	     -7.92025718	     37.70083174	      0.65800364	     16.06251495	    -15.83530832	      0.00000000	     41.37675447	     -2.10348325	      6.54693234	     39.06623877	      0.68183449	      2.65768525	    -12.59789595	      0.00000000	     -0.29063079	      0.90160885	      0.61691319	     -0.53973044	      1.19913977	      0.65547026	     -0.47747733	      2.19217175	      0.65547026	     -0.33216193	      2.19217175	      0.53979904	     -0.26987975	      1.83856076	      0.50124196	     -0.16606643	      1.39659210	      0.46268489	     -2.07594667	     10.19917960	      3.43108606	      0.00000000	      0.00000000	      0.00000000	      0.00000000	      0.00000001	     -9.42384602	    -18.90077856	    -21.33303298	     64.62805047	     73.03014813	      0.00000000	      4.06165338	     -4.09027962	    -11.63911164	     -2.08440304	     25.09481520	     72.05513811	      0.00000000	      4.06165338
      0.15000000	     -8.33698324	      3.39965635	    -93.64560687	     -0.00960381	      0.97620600	     -1.29453607	      5.52976646	     13.81801229	     -8.99922799	     37.52472058	      0.65492993	     14.51685075	    -15.56152963	      0.00000000	     39.02814808	     -1.41670699	      6.98511416	     39.09112959	      0.68226892	      3.69207808	    -12.79784589	      0.00000000	     -0.25854324	      0.68989809	      0.41794479	     -0.48014066	      0.91756446	      0.44406634	     -0.42476070	      1.67741821	      0.44406634	     -0.29548907	      1.67741821	      0.36570169	     -0.24008326	      1.40684018	      0.33958014	     -0.14773161	      1.06865214	      0.31345859	     -1.84674854	      7.80426515	      2.32448352	      0.00000000	      0.00000000	      0.00000000	      0.00000000	      0.00000001	     -9.79804886	    -18.56219252	    -21.20206739	     66.40361080	     73.12162641	      0.00000000	      4.07641098	     -5.08717028	    -12.84902903	     -2.19965638	     25.01137731	     72.13096694	      0.00000000	      4.07641098
      0.16666667	     -7.64423057	      2.30309043	    -93.31454434	     -0.01246324	      0.98138523	     -1.27312632	      2.80232853	     12.65511152	    -10.04257188	     37.54120685	      0.65521766	     13.04013872	    -15.35157232	      0.00000000	     36.09691547	     -0.61765695	      7.09723427	     38.54640071	      0.67276161	      4.70629912	    -12.70154925	      0.00000000	     -0.24173116	      0.42772389	      0.13773238	     -0.44891894	      0.56887277	      0.14634066	     -0.39714013	      1.03996787	      0.14634066	     -0.27627455	      1.03996787	      0.12051583	     -0.22447156	      0.87221456	      0.11190756	     -0.13812519	      0.66254430	      0.10329929	     -1.72666153	      4.83849818	      0.76602619	      0.00000000	      0.00000000	      0.00000000	      0.00000000	      0.00000001	     -9.50031739	    -18.27261526	    -20.33072582	     68.19478894	     73.83619245	      0.00000000	      4.21739848	     -7.07663277	    -14.16826304	     -3.45931647	     25.90118834	     72.30694653	      0.00000000	      4.21739848
